<mxfile host="app.diagrams.net" modified="2023-04-10T00:13:35.166Z" agent="Mozilla/5.0 (Windows NT 10.0; Win64; x64) AppleWebKit/537.36 (KHTML, like Gecko) Chrome/111.0.0.0 Safari/537.36" etag="g6MzFBwLexhYwsoMQZew" version="21.1.4" type="device">
  <diagram name="Page-1" id="yHuAgzLkZ5Ag7gSb9MU5">
    <mxGraphModel dx="1050" dy="581" grid="1" gridSize="10" guides="1" tooltips="1" connect="1" arrows="1" fold="1" page="1" pageScale="1" pageWidth="850" pageHeight="1100" math="0" shadow="0">
      <root>
        <mxCell id="0" />
        <mxCell id="1" parent="0" />
        <mxCell id="FdKUMwmKAYj537FAzARn-5" value="Data Source" style="text;html=1;strokeColor=none;fillColor=none;align=center;verticalAlign=middle;whiteSpace=wrap;rounded=0;labelBackgroundColor=none;fontColor=#393C56;" parent="1" vertex="1">
          <mxGeometry x="75" y="10" width="60" height="30" as="geometry" />
        </mxCell>
        <mxCell id="FdKUMwmKAYj537FAzARn-8" value="Data Preprocessing" style="text;html=1;align=center;verticalAlign=middle;resizable=0;points=[];autosize=1;strokeColor=none;fillColor=none;labelBackgroundColor=none;fontColor=#393C56;" parent="1" vertex="1">
          <mxGeometry x="230" y="10" width="130" height="30" as="geometry" />
        </mxCell>
        <mxCell id="FdKUMwmKAYj537FAzARn-9" value="Machine Learning Step" style="text;html=1;align=center;verticalAlign=middle;resizable=0;points=[];autosize=1;strokeColor=none;fillColor=none;labelBackgroundColor=none;fontColor=#393C56;" parent="1" vertex="1">
          <mxGeometry x="410" y="10" width="150" height="30" as="geometry" />
        </mxCell>
        <mxCell id="FdKUMwmKAYj537FAzARn-11" value="DashBorad" style="text;html=1;align=center;verticalAlign=middle;resizable=0;points=[];autosize=1;strokeColor=none;fillColor=none;labelBackgroundColor=none;fontColor=#393C56;" parent="1" vertex="1">
          <mxGeometry x="640" y="10" width="80" height="30" as="geometry" />
        </mxCell>
        <mxCell id="FdKUMwmKAYj537FAzARn-23" value="" style="swimlane;startSize=0;strokeColor=#E07A5F;fontColor=#393C56;fillColor=#F2CC8F;" parent="1" vertex="1">
          <mxGeometry x="35" y="50" width="130" height="410" as="geometry" />
        </mxCell>
        <mxCell id="FdKUMwmKAYj537FAzARn-20" value="&lt;br&gt;Buzzfeed" style="strokeWidth=2;html=1;shape=mxgraph.flowchart.database;whiteSpace=wrap;strokeColor=#E07A5F;fontColor=#393C56;fillColor=#F2CC8F;" parent="FdKUMwmKAYj537FAzARn-23" vertex="1">
          <mxGeometry x="21.25" y="20" width="90" height="50" as="geometry" />
        </mxCell>
        <mxCell id="FdKUMwmKAYj537FAzARn-21" value="&lt;br&gt;Liar" style="strokeWidth=2;html=1;shape=mxgraph.flowchart.database;whiteSpace=wrap;strokeColor=#E07A5F;fontColor=#393C56;fillColor=#F2CC8F;" parent="FdKUMwmKAYj537FAzARn-23" vertex="1">
          <mxGeometry x="20" y="170" width="90" height="50" as="geometry" />
        </mxCell>
        <mxCell id="DZKuzv40uYhzJiTlVK6x-3" value="&lt;br&gt;PHEME" style="strokeWidth=2;html=1;shape=mxgraph.flowchart.database;whiteSpace=wrap;strokeColor=#E07A5F;fontColor=#393C56;fillColor=#F2CC8F;" vertex="1" parent="FdKUMwmKAYj537FAzARn-23">
          <mxGeometry x="20" y="90" width="90" height="50" as="geometry" />
        </mxCell>
        <mxCell id="DZKuzv40uYhzJiTlVK6x-4" value="&lt;br&gt;Fake and Real News Dataset" style="strokeWidth=2;html=1;shape=mxgraph.flowchart.database;whiteSpace=wrap;strokeColor=#E07A5F;fontColor=#393C56;fillColor=#F2CC8F;" vertex="1" parent="FdKUMwmKAYj537FAzARn-23">
          <mxGeometry x="21.25" y="250" width="87.5" height="50" as="geometry" />
        </mxCell>
        <mxCell id="DZKuzv40uYhzJiTlVK6x-5" value="&lt;br&gt;Annotated Live Data" style="strokeWidth=2;html=1;shape=mxgraph.flowchart.database;whiteSpace=wrap;strokeColor=#E07A5F;fontColor=#393C56;fillColor=#F2CC8F;" vertex="1" parent="FdKUMwmKAYj537FAzARn-23">
          <mxGeometry x="21.25" y="330" width="87.5" height="50" as="geometry" />
        </mxCell>
        <mxCell id="FdKUMwmKAYj537FAzARn-24" value="" style="swimlane;startSize=0;strokeColor=#E07A5F;fontColor=#393C56;fillColor=#F2CC8F;" parent="1" vertex="1">
          <mxGeometry x="230" y="50" width="130" height="410" as="geometry" />
        </mxCell>
        <mxCell id="FdKUMwmKAYj537FAzARn-27" value="Data Cleaning" style="shape=process;whiteSpace=wrap;html=1;backgroundOutline=1;strokeColor=#E07A5F;fontColor=#393C56;fillColor=#F2CC8F;" parent="FdKUMwmKAYj537FAzARn-24" vertex="1">
          <mxGeometry x="5" y="30" width="120" height="60" as="geometry" />
        </mxCell>
        <mxCell id="FdKUMwmKAYj537FAzARn-29" value="Data Integration" style="shape=process;whiteSpace=wrap;html=1;backgroundOutline=1;strokeColor=#E07A5F;fontColor=#393C56;fillColor=#F2CC8F;" parent="FdKUMwmKAYj537FAzARn-24" vertex="1">
          <mxGeometry x="5" y="170" width="120" height="60" as="geometry" />
        </mxCell>
        <mxCell id="FdKUMwmKAYj537FAzARn-28" value="Data Transformation" style="shape=process;whiteSpace=wrap;html=1;backgroundOutline=1;strokeColor=#E07A5F;fontColor=#393C56;fillColor=#F2CC8F;" parent="FdKUMwmKAYj537FAzARn-24" vertex="1">
          <mxGeometry x="5" y="310" width="120" height="60" as="geometry" />
        </mxCell>
        <mxCell id="FdKUMwmKAYj537FAzARn-25" value="" style="swimlane;startSize=0;strokeColor=#E07A5F;fontColor=#393C56;fillColor=#F2CC8F;" parent="1" vertex="1">
          <mxGeometry x="420" y="50" width="140" height="410" as="geometry">
            <mxRectangle x="420" y="50" width="50" height="40" as="alternateBounds" />
          </mxGeometry>
        </mxCell>
        <mxCell id="FdKUMwmKAYj537FAzARn-32" value="BERT-based classification model" style="shape=cube;whiteSpace=wrap;html=1;boundedLbl=1;backgroundOutline=1;darkOpacity=0.05;darkOpacity2=0.1;strokeColor=#E07A5F;fontColor=#393C56;fillColor=#F2CC8F;" parent="FdKUMwmKAYj537FAzARn-25" vertex="1">
          <mxGeometry x="10" y="30" width="120" height="80" as="geometry" />
        </mxCell>
        <mxCell id="DZKuzv40uYhzJiTlVK6x-1" value="GPT2-based classification model" style="shape=cube;whiteSpace=wrap;html=1;boundedLbl=1;backgroundOutline=1;darkOpacity=0.05;darkOpacity2=0.1;strokeColor=#E07A5F;fontColor=#393C56;fillColor=#F2CC8F;" vertex="1" parent="FdKUMwmKAYj537FAzARn-25">
          <mxGeometry x="10" y="165" width="120" height="80" as="geometry" />
        </mxCell>
        <mxCell id="DZKuzv40uYhzJiTlVK6x-2" value="LSTM-based classification model" style="shape=cube;whiteSpace=wrap;html=1;boundedLbl=1;backgroundOutline=1;darkOpacity=0.05;darkOpacity2=0.1;strokeColor=#E07A5F;fontColor=#393C56;fillColor=#F2CC8F;" vertex="1" parent="FdKUMwmKAYj537FAzARn-25">
          <mxGeometry x="10" y="300" width="120" height="80" as="geometry" />
        </mxCell>
        <mxCell id="FdKUMwmKAYj537FAzARn-26" value="" style="swimlane;startSize=0;strokeColor=#E07A5F;fontColor=#393C56;fillColor=#F2CC8F;" parent="1" vertex="1">
          <mxGeometry x="620" y="50" width="130" height="410" as="geometry" />
        </mxCell>
        <mxCell id="FdKUMwmKAYj537FAzARn-36" value="Visualization" style="whiteSpace=wrap;html=1;aspect=fixed;strokeColor=#E07A5F;fontColor=#393C56;fillColor=#F2CC8F;" parent="FdKUMwmKAYj537FAzARn-26" vertex="1">
          <mxGeometry x="25" y="20" width="80" height="80" as="geometry" />
        </mxCell>
        <mxCell id="FdKUMwmKAYj537FAzARn-35" value="Report" style="whiteSpace=wrap;html=1;aspect=fixed;strokeColor=#E07A5F;fontColor=#393C56;fillColor=#F2CC8F;" parent="FdKUMwmKAYj537FAzARn-26" vertex="1">
          <mxGeometry x="25" y="165" width="80" height="80" as="geometry" />
        </mxCell>
        <mxCell id="FdKUMwmKAYj537FAzARn-34" value="Data Product" style="whiteSpace=wrap;html=1;aspect=fixed;strokeColor=#E07A5F;fontColor=#393C56;fillColor=#F2CC8F;" parent="FdKUMwmKAYj537FAzARn-26" vertex="1">
          <mxGeometry x="25" y="310" width="80" height="80" as="geometry" />
        </mxCell>
        <mxCell id="FdKUMwmKAYj537FAzARn-39" value="" style="shape=flexArrow;endArrow=classic;html=1;rounded=0;strokeColor=#E07A5F;fontColor=#393C56;fillColor=#F2CC8F;exitX=1;exitY=0.5;exitDx=0;exitDy=0;entryX=0;entryY=0.5;entryDx=0;entryDy=0;" parent="1" source="FdKUMwmKAYj537FAzARn-23" target="FdKUMwmKAYj537FAzARn-24" edge="1">
          <mxGeometry width="50" height="50" relative="1" as="geometry">
            <mxPoint x="420" y="380" as="sourcePoint" />
            <mxPoint x="470" y="330" as="targetPoint" />
          </mxGeometry>
        </mxCell>
        <mxCell id="FdKUMwmKAYj537FAzARn-40" value="" style="shape=flexArrow;endArrow=classic;html=1;rounded=0;strokeColor=#E07A5F;fontColor=#393C56;fillColor=#F2CC8F;exitX=1;exitY=0.5;exitDx=0;exitDy=0;entryX=0;entryY=0.5;entryDx=0;entryDy=0;" parent="1" edge="1">
          <mxGeometry width="50" height="50" relative="1" as="geometry">
            <mxPoint x="360" y="254.5" as="sourcePoint" />
            <mxPoint x="425" y="254.5" as="targetPoint" />
          </mxGeometry>
        </mxCell>
        <mxCell id="FdKUMwmKAYj537FAzARn-41" value="" style="shape=flexArrow;endArrow=classic;html=1;rounded=0;strokeColor=#E07A5F;fontColor=#393C56;fillColor=#F2CC8F;exitX=1;exitY=0.5;exitDx=0;exitDy=0;entryX=0;entryY=0.5;entryDx=0;entryDy=0;" parent="1" edge="1">
          <mxGeometry width="50" height="50" relative="1" as="geometry">
            <mxPoint x="560" y="250" as="sourcePoint" />
            <mxPoint x="625" y="250" as="targetPoint" />
          </mxGeometry>
        </mxCell>
        <mxCell id="FdKUMwmKAYj537FAzARn-42" value="" style="shape=flexArrow;endArrow=classic;html=1;rounded=0;strokeColor=#E07A5F;fontColor=#393C56;fillColor=#F2CC8F;exitX=1;exitY=0.5;exitDx=0;exitDy=0;entryX=0.5;entryY=1;entryDx=0;entryDy=0;" parent="1" target="FdKUMwmKAYj537FAzARn-25" edge="1">
          <mxGeometry width="50" height="50" relative="1" as="geometry">
            <mxPoint x="750" y="250" as="sourcePoint" />
            <mxPoint x="480" y="530" as="targetPoint" />
            <Array as="points">
              <mxPoint x="810" y="250" />
              <mxPoint x="810" y="570" />
              <mxPoint x="490" y="570" />
            </Array>
          </mxGeometry>
        </mxCell>
        <mxCell id="FdKUMwmKAYj537FAzARn-43" value="Feedback" style="text;html=1;align=center;verticalAlign=middle;resizable=0;points=[];autosize=1;strokeColor=none;fillColor=none;fontColor=#393C56;" parent="1" vertex="1">
          <mxGeometry x="610" y="535" width="80" height="30" as="geometry" />
        </mxCell>
        <mxCell id="FdKUMwmKAYj537FAzARn-44" value="Analyze" style="text;html=1;align=center;verticalAlign=middle;resizable=0;points=[];autosize=1;strokeColor=none;fillColor=none;fontColor=#393C56;" parent="1" vertex="1">
          <mxGeometry x="555" y="205" width="70" height="30" as="geometry" />
        </mxCell>
        <mxCell id="FdKUMwmKAYj537FAzARn-3" value="Live Data" style="ellipse;shape=cloud;whiteSpace=wrap;html=1;labelBackgroundColor=none;fillColor=#F2CC8F;strokeColor=#E07A5F;fontColor=#393C56;" parent="1" vertex="1">
          <mxGeometry x="45" y="520" width="120" height="80" as="geometry" />
        </mxCell>
        <mxCell id="DZKuzv40uYhzJiTlVK6x-7" value="" style="shape=flexArrow;endArrow=classic;html=1;rounded=0;strokeColor=#E07A5F;fontColor=#393C56;fillColor=#F2CC8F;entryX=0.5;entryY=1;entryDx=0;entryDy=0;entryPerimeter=0;" edge="1" parent="1" target="DZKuzv40uYhzJiTlVK6x-5">
          <mxGeometry width="50" height="50" relative="1" as="geometry">
            <mxPoint x="100" y="520" as="sourcePoint" />
            <mxPoint x="240" y="265" as="targetPoint" />
          </mxGeometry>
        </mxCell>
        <mxCell id="DZKuzv40uYhzJiTlVK6x-8" value="Annotate" style="text;html=1;align=center;verticalAlign=middle;resizable=0;points=[];autosize=1;strokeColor=none;fillColor=none;fontColor=#393C56;" vertex="1" parent="1">
          <mxGeometry x="100" y="470" width="70" height="30" as="geometry" />
        </mxCell>
      </root>
    </mxGraphModel>
  </diagram>
</mxfile>
